<svg xmlns="http://www.w3.org/2000/svg" width="500" height="500" fill="none" viewBox="0 0 500 500"><rect width="500" height="500" fill="#FEF"/><path stroke="#403B58" stroke-width="15" d="M320.681 72.8853H386.649C435.444 72.8853 475 112.441 475 161.236V161.236C475 210.031 435.444 249.587 386.649 249.587H320.681"/><path fill="#FF0" stroke="#403B58" stroke-width="5" d="M312.578 419.404V416.904H310.078H267.081C263.423 416.904 260.458 419.869 260.458 423.527C260.458 427.185 263.423 430.15 267.081 430.15H310.078H312.578V427.65V419.404Z"/><path fill="#FF0" stroke="#403B58" stroke-width="5" d="M312.578 364.037V361.537H310.078H267.081C263.423 361.537 260.458 364.502 260.458 368.16C260.458 371.818 263.423 374.783 267.081 374.783H310.078H312.578V372.283V364.037Z"/><path fill="#FF0" stroke="#403B58" stroke-width="5" d="M310.079 157.152H307.579V159.652V427.65V430.15H310.079H323.037H325.537V427.65V159.652V157.152H323.037H310.079Z"/><rect width="11.78" height="8.246" x="300.655" y="364.037" fill="#FF0"/><rect width="15.314" height="8.246" x="297.12" y="419.404" fill="#FF0"/><mask id="path-7-inside-1_202_43" fill="#fff"><path d="M25 217.964H220.576C231.622 217.964 240.576 226.918 240.576 237.964V413.54C240.576 424.585 231.622 433.54 220.576 433.54H30C27.2386 433.54 25 431.301 25 428.54V217.964Z"/></mask><path fill="#FF0" stroke="#403B58" stroke-width="20" d="M25 217.964H220.576C231.622 217.964 240.576 226.918 240.576 237.964V413.54C240.576 424.585 231.622 433.54 220.576 433.54H30C27.2386 433.54 25 431.301 25 428.54V217.964Z" mask="url(#path-7-inside-1_202_43)"/><path stroke="#403B58" stroke-width="15" d="M32.5 222.244V149.639C32.5 129.327 32.5729 120.74 34.5242 113.918C39.5094 96.4894 53.1334 82.8653 70.5625 77.8801C77.3845 75.9288 85.9711 75.8559 106.283 75.8559C126.594 75.8559 135.181 75.9288 142.003 77.8801C159.432 82.8653 173.056 96.4894 178.041 113.918C179.992 120.74 180.065 129.327 180.065 149.639V182.277C180.065 193.024 180.052 200.407 179.373 206.006C178.715 211.43 177.529 214.166 175.884 216.095C175.282 216.802 174.624 217.46 173.917 218.062C171.988 219.707 169.252 220.893 163.828 221.551C158.229 222.231 150.846 222.244 140.098 222.244H32.5Z"/><path fill="#403B58" d="M153.403 308.877C153.405 313.065 152.123 317.151 149.731 320.571C147.34 323.991 143.959 326.577 140.052 327.973L145.193 354.829C145.38 355.806 145.351 356.813 145.108 357.777C144.865 358.741 144.414 359.639 143.787 360.406C143.161 361.173 142.374 361.791 141.484 362.215C140.594 362.639 139.622 362.859 138.637 362.859H128.117C127.134 362.857 126.163 362.636 125.274 362.211C124.386 361.786 123.601 361.168 122.976 360.401C122.351 359.634 121.901 358.737 121.659 357.773C121.417 356.81 121.388 355.805 121.575 354.829L126.702 327.973C123.241 326.736 120.183 324.561 117.862 321.686C115.541 318.811 114.046 315.347 113.541 311.671C113.036 307.996 113.541 304.251 114.999 300.845C116.458 297.44 118.814 294.505 121.811 292.362C124.807 290.219 128.329 288.95 131.992 288.693C135.654 288.436 139.315 289.202 142.576 290.906C145.837 292.611 148.571 295.189 150.481 298.358C152.39 301.527 153.401 305.166 153.403 308.877Z"/><circle cx="315.969" cy="114.298" r="43.298" fill="#FF0" stroke="#403B58" stroke-width="10"/><circle cx="316.558" cy="114.888" r="21.649" fill="#fff" stroke="#403B58" stroke-width="5"/></svg>